<svg width="146" height="118" viewBox="0 0 146 118" fill="none" xmlns="http://www.w3.org/2000/svg">
<path d="M9.45015 41.8284C11.0327 44.223 9.90826 48.0267 7.0208 49.1303C5.59095 49.6717 3.95288 49.4079 2.64797 48.6444C1.34306 47.8948 0.274146 46.5621 0.0520339 44.9588C-0.177019 43.3831 0.37132 41.7867 1.28059 40.5582C2.18292 39.3157 3.48089 38.3509 4.90379 37.8026C6.31976 37.2404 7.8329 37.0252 9.30439 36.9974C10.7759 36.9627 12.2196 37.1085 13.6425 37.2889C25.0674 38.7882 35.3331 44.3202 46.3416 45.0004C49.0624 45.1947 51.7972 45.0906 54.4348 44.5423C57.0793 44.0148 59.6266 43.05 61.7367 41.516C62.7917 40.7456 63.7288 39.8432 64.4437 38.7882C65.1656 37.7332 65.6931 36.5463 65.9568 35.3108C66.5121 32.8398 65.7556 30.223 63.9301 28.4253C63.0416 27.5299 61.9311 26.8427 60.7164 26.5026C59.5087 26.1625 58.1968 26.1486 56.9474 26.4471C55.698 26.7456 54.5042 27.3425 53.5394 28.2032C52.5746 29.0639 51.8527 30.1883 51.4849 31.4377C51.117 32.6732 51.117 34.0475 51.6653 35.2136C52.2067 36.3727 53.2756 37.3306 54.5389 37.6985C55.7952 38.108 57.2459 37.7332 58.1413 36.699C59.0575 35.7272 59.5156 34.1794 58.877 32.8814C59.6197 34.1169 59.3143 35.7897 58.405 36.9211C57.9469 37.4902 57.3361 37.9622 56.6143 38.1982C55.8993 38.4412 55.1219 38.455 54.3862 38.2815C52.9147 37.9483 51.6306 36.9488 50.8879 35.6023C50.1522 34.2418 50.0481 32.6177 50.3951 31.1462C50.7422 29.6677 51.5473 28.3073 52.6371 27.2384C53.7337 26.1764 55.0942 25.4129 56.5657 24.9895C58.0302 24.5591 59.6266 24.5244 61.1398 24.8993C62.6599 25.2741 64.0411 26.0723 65.1725 27.1343C66.3039 28.1962 67.1854 29.5358 67.6713 31.0351C68.1641 32.5413 68.2196 34.1655 67.9211 35.6856C67.345 38.7466 65.4571 41.4466 63.0277 43.2374C60.5984 45.0629 57.7456 46.1179 54.8859 46.7148C52.0124 47.3256 49.0694 47.4575 46.1819 47.2632C40.3931 46.8467 34.8473 45.2364 29.4888 43.4942C24.1304 41.7381 18.8413 39.9265 13.3788 39.0311C10.6648 38.5939 7.88842 38.344 5.41743 39.1838C4.19581 39.5934 3.11302 40.336 2.30786 41.3356C1.50964 42.3281 1.03766 43.5775 1.14871 44.813C1.3153 47.284 4.2791 49.3316 6.81257 48.5472C8.06889 48.1724 9.08228 47.0966 9.58203 45.8333C10.0957 44.577 10.1304 43.0639 9.44321 41.8145L9.45015 41.8284Z" fill="#BC6E44"/>
<path d="M46.1886 46.0841C45.5292 45.9869 44.8767 45.8203 44.2382 45.5982C43.5996 45.3622 42.9957 45.0499 42.4057 44.7098C41.2327 44.0157 40.1777 43.1411 39.1782 42.2388C37.2 40.3925 35.4717 38.3865 33.4449 36.8665C32.4385 36.1168 31.3557 35.513 30.2382 35.1312C29.1137 34.7633 27.9338 34.6592 26.7677 34.8119C25.6085 34.9716 24.4702 35.3464 23.4846 35.9572C22.499 36.568 21.673 37.394 21.0622 38.3796C19.8058 40.33 19.4241 42.8704 20.1598 45.0568C20.8539 47.2849 22.6239 49.1937 24.8103 50.1029C25.9 50.5541 27.1008 50.7138 28.142 50.3945C29.1623 50.0891 30.0785 49.1798 30.1757 48.1317C30.3076 47.0975 29.5302 45.8828 28.4057 45.5705C27.2813 45.2512 25.8376 45.8342 25.2476 47.042C25.6085 45.744 27.0245 44.7445 28.5307 44.9458C30.0299 45.161 31.2654 46.5353 31.3001 48.1664C31.3071 48.9785 30.9947 49.7628 30.5158 50.3806C30.0369 51.0053 29.3983 51.4911 28.6626 51.7965C27.1841 52.4004 25.5808 52.2338 24.1995 51.7757C21.3884 50.8456 19.1395 48.5482 18.1122 45.7509C17.0919 42.9051 17.557 39.6706 19.1326 37.1441C19.9377 35.8878 21.0483 34.798 22.3324 34.0345C23.6234 33.278 25.0602 32.7921 26.5386 32.6533C28.0101 32.5214 29.5302 32.7157 30.9114 33.2363C32.2927 33.7499 33.5074 34.5551 34.5624 35.4644C36.7002 37.276 38.262 39.4902 39.9833 41.4406C41.6908 43.3979 43.6343 45.2373 46.1886 46.0772V46.0841Z" fill="#BC6E44"/>
<path d="M39.0469 40.787C38.0821 40.197 37.277 39.3086 36.7217 38.2397C36.1872 37.1707 35.9235 35.8797 36.1109 34.6165C36.2775 33.3532 36.8536 32.0969 37.8461 31.1529C38.8387 30.202 40.1783 29.6675 41.5665 29.6328C42.2606 29.6328 42.9686 29.7508 43.6349 30.0423C44.3013 30.3339 44.8704 30.7711 45.3355 31.2917C46.2378 32.3329 46.7376 33.8044 46.4113 35.2203C46.2517 35.9144 45.9046 36.546 45.4049 37.0389C44.9121 37.5247 44.2527 37.8787 43.5378 37.9342C42.809 37.969 42.1565 37.6913 41.6984 37.254C41.2334 36.8237 40.9696 36.1712 41.1015 35.609C41.3861 36.7196 42.6285 37.1083 43.3504 36.8306C44.1208 36.5669 44.5928 35.6992 44.6344 34.9219C44.6761 34.1445 44.3152 33.3393 43.7391 32.7701C43.1491 32.201 42.4203 31.9095 41.6012 31.9303C40.7891 31.9372 39.9354 32.2426 39.2968 32.7771C38.6444 33.3046 38.1377 34.0959 37.867 34.9913C37.2909 36.782 37.8045 38.9407 39.0469 40.8009V40.787Z" fill="#BC6E44"/>
<path d="M56.3647 29.2397C57.8362 29.2397 57.8431 26.9492 56.3647 26.9492C54.8863 26.9492 54.8863 29.2397 56.3647 29.2397Z" fill="#BC6E44"/>
<path d="M59.7446 29.0562C61.2161 29.0562 61.223 26.7656 59.7446 26.7656C58.2661 26.7656 58.2661 29.0562 59.7446 29.0562Z" fill="#BC6E44"/>
<path d="M62.2153 30.689C63.6868 30.689 63.6937 28.3984 62.2153 28.3984C60.7368 28.3984 60.7368 30.689 62.2153 30.689Z" fill="#BC6E44"/>
<path d="M73.0641 32.9003L78.5613 26.8686C78.5613 26.8686 74.6674 21.8294 78.5613 18.4284C78.5613 18.4284 80.2202 20.8716 83.2535 19.8443C86.2867 18.8171 85.9674 14.1596 85.9674 14.1596C85.9674 14.1596 85.3149 17.3456 80.8866 16.7903C80.8866 16.7903 84.5306 15.1314 82.6843 12.7853C80.831 10.4393 75.1047 12.7298 74.244 27.2157C74.244 27.2157 72.3353 20.8369 74.9728 15.2702C77.6104 9.69658 79.7205 8.82201 80.9282 8.67625C80.9282 8.67625 78.9709 6.03173 75.6114 7.07288C75.6114 7.07288 75.9793 2.79722 72.8628 0C69.7463 2.79722 70.1141 7.07288 70.1141 7.07288C66.7547 6.03173 64.7973 8.67625 64.7973 8.67625C66.0051 8.81507 68.1221 9.69658 70.7527 15.2702C73.3834 20.8438 71.4815 27.2226 71.4815 27.2226C70.6208 12.7367 64.8945 10.4462 63.0413 12.7923C61.188 15.1383 64.839 16.7972 64.839 16.7972C60.4106 17.3525 59.7651 14.1596 59.7651 14.1596C59.7651 14.1596 59.4389 18.8171 62.4721 19.8443C65.5053 20.8716 67.1712 18.4353 67.1712 18.4353C71.0651 21.8294 67.1712 26.8686 67.1712 26.8686L72.6684 32.9003H73.0779H73.0641Z" fill="#BC6E44"/>
<path d="M135.679 41.8262C134.985 43.0686 135.02 44.5887 135.54 45.845C136.04 47.1083 137.054 48.1772 138.31 48.559C140.843 49.3433 143.807 47.2957 143.974 44.8247C144.085 43.5892 143.613 42.3398 142.815 41.3473C142.009 40.3478 140.927 39.6051 139.705 39.1956C137.234 38.3488 134.465 38.5986 131.744 39.0429C126.288 39.9382 120.992 41.7498 115.634 43.5059C110.282 45.2481 104.729 46.8584 98.9406 47.2749C96.0531 47.4692 93.1101 47.3374 90.2365 46.7265C87.3769 46.1296 84.5241 45.0746 82.0948 43.2491C79.6654 41.4514 77.7775 38.7513 77.2014 35.6973C76.9098 34.1703 76.9654 32.553 77.4512 31.0468C77.9371 29.5406 78.8186 28.201 79.95 27.146C81.0814 26.084 82.4626 25.2858 83.9827 24.911C85.4958 24.5362 87.0923 24.5709 88.5568 25.0012C90.0214 25.4246 91.3888 26.1881 92.4854 27.2501C93.5752 28.3121 94.3803 29.6794 94.7274 31.1579C95.0744 32.6294 94.9703 34.2536 94.2346 35.614C93.4988 36.9536 92.2078 37.9531 90.7363 38.2932C90.0006 38.4668 89.2232 38.4459 88.5082 38.2099C87.7864 37.9809 87.1756 37.502 86.7175 36.9328C85.8082 35.8014 85.5028 34.1286 86.2455 32.8931C85.6138 34.1911 86.065 35.7389 86.9812 36.7107C87.8766 37.7449 89.3273 38.1128 90.5836 37.7102C91.8469 37.3423 92.9158 36.3845 93.4572 35.2253C93.9986 34.0592 94.0055 32.6849 93.6376 31.4494C93.2698 30.2 92.5479 29.0756 91.5831 28.2149C90.6183 27.3542 89.4245 26.7573 88.1751 26.4588C86.9257 26.1604 85.6069 26.1742 84.4061 26.5143C83.1984 26.8475 82.0878 27.5416 81.1924 28.437C79.3669 30.2278 78.6104 32.8515 79.1657 35.3225C79.4294 36.558 79.9569 37.7449 80.6788 38.7999C81.3937 39.855 82.3307 40.7642 83.3858 41.5277C85.4958 43.0617 88.0432 44.0334 90.6877 44.554C93.3253 45.0954 96.0601 45.1995 98.7809 45.0121C109.789 44.3319 120.055 38.7999 131.48 37.3007C132.896 37.1202 134.34 36.9814 135.818 37.0091C137.29 37.0438 138.796 37.2521 140.219 37.8143C141.649 38.3626 142.94 39.3274 143.842 40.5699C144.744 41.7984 145.3 43.3949 145.07 44.9705C144.841 46.5738 143.773 47.9065 142.475 48.6561C141.177 49.4197 139.538 49.6834 138.102 49.142C135.207 48.0384 134.083 44.2347 135.672 41.8401L135.679 41.8262Z" fill="#BC6E44"/>
<path d="M98.9473 46.0811C101.502 45.2412 103.445 43.4088 105.153 41.4445C106.874 39.4941 108.436 37.2799 110.573 35.4683C111.628 34.559 112.85 33.7539 114.224 33.2402C115.606 32.7196 117.126 32.5253 118.597 32.6572C120.076 32.796 121.512 33.2819 122.803 34.0384C124.088 34.8019 125.198 35.8917 126.003 37.148C127.579 39.6745 128.044 42.909 127.024 45.7548C125.996 48.5521 123.754 50.8495 120.936 51.7796C119.555 52.2308 117.945 52.4043 116.473 51.8005C115.738 51.495 115.099 51.0022 114.62 50.3845C114.141 49.7667 113.829 48.9824 113.836 48.1703C113.877 46.5392 115.106 45.1649 116.605 44.9497C118.104 44.7484 119.527 45.7479 119.888 47.0459C119.298 45.8381 117.855 45.2551 116.73 45.5744C115.606 45.8867 114.828 47.0945 114.96 48.1356C115.057 49.1837 115.98 50.0999 116.994 50.3984C118.035 50.7177 119.236 50.558 120.326 50.1068C122.505 49.1976 124.275 47.2888 124.976 45.0607C125.712 42.8674 125.33 40.3339 124.074 38.3835C123.456 37.3979 122.637 36.5719 121.651 35.9611C120.659 35.3503 119.527 34.9755 118.368 34.8158C117.202 34.6631 116.022 34.7672 114.898 35.1351C113.773 35.5169 112.697 36.1207 111.691 36.8704C109.664 38.3835 107.936 40.3964 105.958 42.2427C104.958 43.145 103.91 44.0265 102.73 44.7137C102.14 45.0538 101.536 45.3661 100.898 45.6021C100.259 45.8312 99.6067 45.9978 98.9473 46.088V46.0811Z" fill="#BC6E44"/>
<path d="M106.083 40.7853C107.325 38.9251 107.839 36.7595 107.263 34.9756C106.992 34.0803 106.492 33.289 105.833 32.7615C105.194 32.2339 104.341 31.9285 103.528 31.9147C102.709 31.9008 101.981 32.1854 101.391 32.7545C100.815 33.3237 100.447 34.1288 100.495 34.9062C100.537 35.6836 101.009 36.5512 101.779 36.815C102.494 37.0996 103.744 36.704 104.028 35.5934C104.16 36.1556 103.896 36.8081 103.431 37.2384C102.973 37.6757 102.321 37.9533 101.592 37.9186C100.877 37.8631 100.218 37.5091 99.7248 37.0232C99.225 36.5304 98.8849 35.9057 98.7183 35.2047C98.3921 33.7887 98.8919 32.3242 99.7942 31.2761C100.259 30.7555 100.828 30.3182 101.495 30.0267C102.161 29.7352 102.869 29.6172 103.563 29.6172C104.951 29.6519 106.284 30.1863 107.284 31.1373C108.276 32.0812 108.852 33.3376 109.019 34.6008C109.206 35.871 108.935 37.1551 108.408 38.224C107.853 39.2929 107.048 40.1814 106.083 40.7714V40.7853Z" fill="#BC6E44"/>
<path d="M88.7719 29.2358C90.2434 29.2358 90.2503 26.9453 88.7719 26.9453C87.2935 26.9453 87.2935 29.2358 88.7719 29.2358Z" fill="#BC6E44"/>
<path d="M85.3852 29.0562C86.8567 29.0562 86.8636 26.7656 85.3852 26.7656C83.9068 26.7656 83.9068 29.0562 85.3852 29.0562Z" fill="#BC6E44"/>
<path d="M82.9135 30.689C84.385 30.689 84.3919 28.3984 82.9135 28.3984C81.4351 28.3984 81.4351 30.689 82.9135 30.689Z" fill="#BC6E44"/>
<path d="M75.5001 38.6039C74.7922 39.0342 73.7163 39.8047 73.1471 40.7972C72.9736 41.1027 72.5572 41.1027 72.3767 40.7972C71.8075 39.8047 70.7317 39.0342 70.0237 38.6039C69.7391 38.4304 69.753 38.0417 70.0237 37.8612C71.2106 37.0977 71.9533 35.7581 72.3628 34.8072C72.5086 34.4601 73.0014 34.4601 73.1541 34.8072C73.5636 35.7581 74.3063 37.0977 75.4932 37.8612C75.7708 38.0417 75.7847 38.4373 75.4932 38.6039H75.5001Z" fill="#BC6E44"/>
<path d="M56.5214 113.591C56.3314 114.131 56.5614 114.701 56.9514 115.101C57.3414 115.501 57.8814 115.771 58.4214 115.821C59.5514 115.941 60.6814 115.421 61.5614 114.681C62.4414 113.931 63.1214 112.931 63.3714 111.871C63.6514 110.811 63.4114 109.751 62.7414 109.021C62.0914 108.271 61.0514 107.811 59.9714 107.641C58.8814 107.461 57.7614 107.531 56.7214 107.871C54.5714 108.541 52.7214 110.051 50.8614 111.691C48.9914 113.331 46.9614 115.181 44.2114 116.221C42.8114 116.741 41.2714 116.931 39.7614 116.731C38.2614 116.531 36.6714 115.951 35.4414 114.691C34.8514 114.071 34.3514 113.241 34.1414 112.341C33.9314 111.451 33.9614 110.551 34.1914 109.731C34.6614 108.111 35.8314 106.761 37.3414 106.151C38.8414 105.551 40.5014 105.621 41.8614 106.511C42.5214 106.961 43.0214 107.761 43.0514 108.541C43.1214 109.321 42.7414 110.121 42.1114 110.461L41.9014 110.201C42.6314 109.241 41.9514 108.031 41.1114 107.821C40.2414 107.501 39.1114 107.731 38.3714 108.231C37.6314 108.741 37.1114 109.561 37.0214 110.381C36.9714 110.791 37.0014 111.171 37.1314 111.491C37.2514 111.811 37.4514 112.071 37.7514 112.331C38.9214 113.361 41.2614 113.651 43.1714 113.091C45.2414 112.561 47.1814 111.141 49.1714 109.621C51.1714 108.101 53.4014 106.451 56.1414 105.781C57.5114 105.431 58.9714 105.431 60.3414 105.761C61.7014 106.091 63.0814 106.751 64.0114 107.971C64.9614 109.191 65.1214 110.911 64.6314 112.231C64.1714 113.591 63.2614 114.681 62.1614 115.471C61.0714 116.241 59.6814 116.761 58.3014 116.501C57.6014 116.351 56.9814 115.961 56.5514 115.421C56.1214 114.901 55.8914 114.101 56.2014 113.451L56.5114 113.581L56.5214 113.591Z" fill="#BC6E44"/>
<path d="M52.0412 109.081C50.8512 109.341 49.5012 109.151 48.3012 108.371C47.1212 107.561 46.2812 105.951 46.6912 104.211C47.0912 102.491 48.5412 100.951 50.4012 101.001C51.3012 101.001 52.2012 101.371 52.7812 101.971C53.3812 102.541 53.7512 103.431 53.4912 104.201L53.1812 104.301C51.9512 103.721 51.1712 104.071 50.7112 104.281C50.4612 104.411 50.2212 104.491 49.9312 104.571C49.6312 104.651 49.3512 104.791 49.2012 105.031C48.8812 105.511 48.9012 106.431 49.4212 107.161C49.9312 107.941 50.9312 108.501 52.0412 108.751V109.081Z" fill="#BC6E44"/>
<path d="M90.3914 113.97C90.7014 114.62 90.4814 115.42 90.0414 115.94C89.6114 116.48 88.9914 116.87 88.2914 117.02C86.9014 117.29 85.5214 116.76 84.4314 115.99C83.3314 115.2 82.4214 114.11 81.9614 112.75C81.4714 111.42 81.6314 109.71 82.5814 108.49C83.5214 107.27 84.9014 106.61 86.2514 106.28C87.6214 105.96 89.0814 105.95 90.4514 106.3C93.1914 106.97 95.4214 108.62 97.4214 110.14C99.4114 111.67 101.351 113.08 103.421 113.61C105.331 114.16 107.681 113.87 108.841 112.85C109.141 112.59 109.341 112.33 109.461 112.01C109.591 111.69 109.621 111.3 109.571 110.9C109.481 110.08 108.971 109.25 108.221 108.75C107.481 108.25 106.361 108.03 105.481 108.34C104.641 108.55 103.971 109.76 104.691 110.72L104.481 110.98C103.851 110.64 103.471 109.84 103.541 109.06C103.571 108.29 104.071 107.49 104.731 107.03C106.081 106.13 107.751 106.07 109.251 106.67C110.761 107.27 111.931 108.63 112.401 110.25C112.641 111.07 112.671 111.97 112.451 112.86C112.241 113.75 111.741 114.59 111.151 115.21C109.921 116.47 108.331 117.05 106.831 117.25C105.321 117.44 103.791 117.25 102.381 116.74C99.6314 115.7 97.6014 113.85 95.7314 112.21C93.8714 110.58 92.0214 109.07 89.8714 108.39C88.8314 108.05 87.7114 107.98 86.6214 108.16C85.5414 108.34 84.5014 108.79 83.8514 109.54C83.1814 110.27 82.9414 111.33 83.2214 112.39C83.4714 113.45 84.1514 114.45 85.0314 115.2C85.9114 115.94 87.0414 116.46 88.1714 116.34C88.7114 116.29 89.2514 116.02 89.6414 115.62C90.0314 115.22 90.2614 114.64 90.0714 114.11L90.3814 113.98L90.3914 113.97Z" fill="#BC6E44"/>
<path d="M94.5616 109.251C95.6616 108.991 96.6616 108.441 97.1816 107.661C97.7016 106.931 97.7216 106.021 97.4016 105.531C97.2516 105.291 96.9716 105.151 96.6716 105.071C96.3816 104.991 96.1416 104.911 95.8916 104.781C95.4316 104.571 94.6516 104.221 93.4216 104.801L93.1116 104.701C92.8516 103.931 93.2316 103.041 93.8216 102.471C94.4016 101.861 95.3016 101.511 96.2016 101.501C98.0616 101.451 99.5116 102.991 99.9116 104.711C100.322 106.451 99.4816 108.061 98.3016 108.871C97.1116 109.661 95.7516 109.841 94.5616 109.581V109.251Z" fill="#BC6E44"/>
<path d="M78.2319 108.902C76.9519 108.132 75.0119 106.742 73.9919 104.952C73.6819 104.402 72.9219 104.402 72.6119 104.952C71.5919 106.742 69.6519 108.122 68.3719 108.902C67.8619 109.212 67.8819 109.922 68.3819 110.242C70.5219 111.622 71.8619 114.032 72.5919 115.742C72.8619 116.372 73.7519 116.372 74.0119 115.742C74.7419 114.022 76.0819 111.612 78.2219 110.242C78.7219 109.922 78.7419 109.212 78.2319 108.902Z" fill="#BC6E44"/>
<path d="M0.0761991 84.4548C0.0253997 84.4548 0 84.3769 0 84.2212C0 84.0654 0.0253997 83.9875 0.0761991 83.9875C0.86359 83.9875 1.44778 83.9226 1.82878 83.7928C2.23517 83.663 2.52727 83.4164 2.70507 83.053C2.90826 82.6635 3.08606 82.0794 3.23846 81.3006L6.32452 63.271C6.42612 62.8297 6.47692 62.4013 6.47692 61.986C6.47692 61.4408 6.31182 61.0774 5.98163 60.8956C5.65143 60.688 5.05454 60.5841 4.19095 60.5841C4.11475 60.5841 4.07665 60.5062 4.07665 60.3505C4.07665 60.1947 4.11475 60.1168 4.19095 60.1168L5.79113 60.1558C6.70552 60.2077 7.46751 60.2336 8.0771 60.2336L9.90588 60.1558C11.0743 60.0519 12.0141 60 12.7252 60C14.7064 60 16.3193 60.4543 17.5639 61.3629C18.8085 62.2715 19.4308 63.6085 19.4308 65.3738C19.4308 65.6594 19.38 66.1397 19.2784 66.8146C18.9736 68.4502 18.3005 69.8261 17.2591 70.9424C16.2431 72.0587 15.062 72.8894 13.7158 73.4346C12.3951 73.9797 11.1124 74.2523 9.86778 74.2523C9.23279 74.2523 8.71209 74.1874 8.3057 74.0576C8.2803 74.0576 8.2676 74.0187 8.2676 73.9408C8.2676 73.837 8.293 73.7201 8.3438 73.5903C8.3946 73.4605 8.4454 73.4086 8.4962 73.4346C8.82639 73.5384 9.20739 73.5903 9.63918 73.5903C11.1378 73.5903 12.5093 73.0841 13.7539 72.0717C15.0239 71.0332 15.824 69.5405 16.1542 67.5935C16.2558 67.0742 16.3066 66.5161 16.3066 65.919C16.3066 64.2835 15.8875 62.9984 15.0493 62.0639C14.2111 61.1293 13.1824 60.662 11.9633 60.662C11.2013 60.662 10.6425 60.7269 10.2869 60.8567C9.95668 60.9605 9.68998 61.1942 9.48679 61.5576C9.30899 61.9211 9.14389 62.5182 8.99149 63.3489L5.90543 81.3006C5.80383 81.9756 5.75303 82.4039 5.75303 82.5857C5.75303 83.1308 5.91813 83.5073 6.24832 83.715C6.57852 83.8967 7.18811 83.9875 8.0771 83.9875C8.1279 83.9875 8.1533 84.0654 8.1533 84.2212C8.1533 84.3769 8.1279 84.4548 8.0771 84.4548C7.39131 84.4548 6.84522 84.4418 6.43882 84.4159L4.00045 84.3769L1.71448 84.4159C1.30808 84.4418 0.761991 84.4548 0.0761991 84.4548Z" fill="white"/>
<path d="M25.6303 64.634C25.0715 64.634 24.627 64.4782 24.2968 64.1667C23.992 63.8292 23.8396 63.3749 23.8396 62.8037C23.8396 62.2586 23.992 61.8302 24.2968 61.5187C24.627 61.2072 25.0715 61.0514 25.6303 61.0514C26.1891 61.0514 26.6209 61.2072 26.9257 61.5187C27.2559 61.8302 27.421 62.2586 27.421 62.8037C27.421 63.3749 27.2686 63.8292 26.9638 64.1667C26.659 64.4782 26.2145 64.634 25.6303 64.634ZM23.1919 84.8053C22.1759 84.8053 21.6679 84.1693 21.6679 82.8972C21.6679 82.352 21.7441 81.716 21.8965 80.9891L23.4586 72.8894C23.5348 72.5 23.5729 72.1625 23.5729 71.8769C23.5729 71.0981 23.3316 70.7087 22.849 70.7087C22.5696 70.7087 22.214 70.8645 21.7822 71.176C21.3504 71.4616 20.8805 71.8769 20.3725 72.4221C20.3471 72.4481 20.309 72.4611 20.2582 72.4611C20.182 72.4611 20.1058 72.4221 20.0296 72.3442C19.9788 72.2404 19.9915 72.1625 20.0677 72.1106C21.7441 70.0857 23.23 69.0732 24.5254 69.0732C25.0334 69.0732 25.4017 69.229 25.6303 69.5405C25.8843 69.8261 26.0113 70.2804 26.0113 70.9034C26.0113 71.5005 25.9478 72.0976 25.8208 72.6947L24.2587 80.9891C24.1825 81.3785 24.1444 81.716 24.1444 82.0016C24.1444 82.7544 24.373 83.1308 24.8302 83.1308C25.4144 83.1308 26.2145 82.5857 27.2305 81.4953C27.2559 81.4694 27.294 81.4564 27.3448 81.4564C27.4464 81.4564 27.5226 81.5083 27.5734 81.6121C27.6242 81.69 27.6115 81.7549 27.5353 81.8069C26.6971 82.8193 25.9224 83.5722 25.2112 84.0654C24.5254 84.5587 23.8523 84.8053 23.1919 84.8053Z" fill="white"/>
<path d="M45.3685 81.4564C45.4193 81.4045 45.4574 81.3785 45.4828 81.3785C45.559 81.3785 45.6225 81.4304 45.6733 81.5343C45.7241 81.6121 45.7241 81.69 45.6733 81.7679C44.8097 82.8063 44.035 83.5722 43.3492 84.0654C42.6634 84.5587 41.9904 84.8053 41.33 84.8053C40.822 84.8053 40.4537 84.6625 40.2251 84.3769C39.9965 84.0654 39.8822 83.5722 39.8822 82.8972C39.8822 82.4559 39.9457 81.8198 40.0727 80.9891L41.1776 74.7975C41.33 74.0187 41.4062 73.3437 41.4062 72.7726C41.4062 71.3707 40.9109 70.6698 39.9203 70.6698C39.1075 70.6698 38.2693 71.202 37.4057 72.2664C36.5421 73.3307 35.7293 74.8754 34.9673 76.9003C34.2053 78.9252 33.5831 81.3266 33.1005 84.1044C33.0497 84.312 32.8973 84.4678 32.6433 84.5717C32.3893 84.7015 32.0464 84.7664 31.6146 84.7664C30.9288 84.7664 30.5859 84.6755 30.5859 84.4938L30.7383 83.715C30.9669 82.5986 31.1066 81.8847 31.1574 81.5732L32.7195 72.8894C32.7957 72.5 32.8338 72.1755 32.8338 71.9159C32.8338 71.1111 32.5925 70.7087 32.1099 70.7087C31.5003 70.7087 30.6621 71.2799 29.5953 72.4221C29.5699 72.4481 29.5318 72.4611 29.481 72.4611C29.4048 72.4611 29.3413 72.4221 29.2905 72.3442C29.2397 72.2404 29.2397 72.1625 29.2905 72.1106C30.1541 71.0722 30.9542 70.3063 31.6908 69.8131C32.4274 69.3198 33.1386 69.0732 33.8244 69.0732C34.3323 69.0732 34.7006 69.229 34.9292 69.5405C35.1578 69.8261 35.2721 70.2934 35.2721 70.9424C35.2721 71.3318 35.2086 71.9159 35.0816 72.6947L34.3196 76.9782C35.234 74.4341 36.3008 72.4611 37.52 71.0592C38.7392 69.6314 40.0219 68.9174 41.3681 68.9174C42.2063 68.9174 42.8285 69.1641 43.2349 69.6573C43.6667 70.1506 43.8826 70.9034 43.8826 71.9159C43.8826 72.513 43.8064 73.2269 43.654 74.0576L42.3968 80.9891C42.3206 81.3785 42.2825 81.703 42.2825 81.9626C42.2825 82.7414 42.5238 83.1308 43.0063 83.1308C43.2603 83.1308 43.5778 82.9881 43.9588 82.7025C44.3398 82.4169 44.8097 82.0016 45.3685 81.4564Z" fill="white"/>
<path d="M52.441 85C50.8663 85 49.6471 84.4548 48.7835 83.3645C47.9453 82.2482 47.5262 80.8074 47.5262 79.0421C47.5262 78.4709 47.5897 77.77 47.7167 76.9393C47.9961 75.4076 48.5295 74.0317 49.3169 72.8115C50.1297 71.5914 51.1076 70.6438 52.2505 69.9688C53.3935 69.2679 54.6 68.9174 55.87 68.9174C57.4956 68.9174 58.7402 69.4626 59.6038 70.553C60.4927 71.6173 60.9372 73.0322 60.9372 74.7975C60.9372 75.4725 60.861 76.1864 60.7086 76.9393C60.3784 78.5748 59.7816 80.0026 58.918 81.2227C58.0798 82.4429 57.0892 83.3775 55.9462 84.0265C54.8032 84.6755 53.6348 85 52.441 85ZM53.7745 84.0265C54.7651 84.0265 55.6414 83.5462 56.4034 82.5857C57.1908 81.6251 57.7369 80.3141 58.0417 78.6526C58.1941 77.8219 58.2703 77.0042 58.2703 76.1994C58.2703 74.4341 57.9528 72.9413 57.3178 71.7212C56.7082 70.4751 55.8319 69.852 54.6889 69.852C53.7237 69.852 52.8474 70.3323 52.06 71.2928C51.2727 72.2534 50.7266 73.5774 50.4218 75.2648C50.244 76.2513 50.1551 77.121 50.1551 77.8738C50.1551 79.6132 50.4726 81.08 51.1076 82.2741C51.7679 83.4424 52.6569 84.0265 53.7745 84.0265Z" fill="white"/>
<path d="M73.0669 69.5016C73.1685 69.5016 73.2447 69.5405 73.2955 69.6184C73.3463 69.6963 73.359 69.7871 73.3336 69.891C73.2574 70.1506 73.0923 70.4361 72.8383 70.7477C72.5843 71.0592 72.3303 71.215 72.0763 71.215C71.9493 71.215 71.4667 71.1501 70.6285 71.0202C69.8157 70.8904 68.9775 70.8126 68.1139 70.7866L66.4376 80.3271C66.3614 80.7165 66.3233 81.067 66.3233 81.3785C66.3233 82.0275 66.4757 82.5078 66.7805 82.8193C67.0853 83.1049 67.5678 83.2477 68.2282 83.2477C68.8378 83.2477 69.4093 83.1179 69.9427 82.8583C70.5015 82.5727 71.1111 82.1573 71.7715 81.6121H71.8096C71.8858 81.6121 71.962 81.6511 72.0382 81.729C72.1144 81.8069 72.1271 81.8718 72.0763 81.9237C70.9333 82.9881 69.9173 83.7539 69.0283 84.2212C68.1647 84.6885 67.3266 84.9221 66.5138 84.9221C65.701 84.9221 65.0406 84.7274 64.5326 84.338C64.0246 83.9226 63.7706 83.2347 63.7706 82.2741C63.7706 82.1184 63.796 81.8069 63.8468 81.3396L65.447 72.5389C65.5486 72.0976 65.5994 71.6952 65.5994 71.3318C65.5994 70.9683 65.4978 70.7347 65.2946 70.6308C65.0914 70.501 64.7104 70.4361 64.1516 70.4361C64.0754 70.4361 64.0373 70.3712 64.0373 70.2414C64.0373 70.1636 64.05 70.0857 64.0754 70.0078C64.1262 69.9299 64.1643 69.891 64.1897 69.891C65.1295 69.891 65.9423 69.6054 66.6281 69.0343C67.3393 68.4372 67.8472 67.6843 68.152 66.7757C68.152 66.6978 68.2409 66.6589 68.4187 66.6589C68.5203 66.6589 68.6092 66.6848 68.6854 66.7368C68.787 66.7627 68.8251 66.7887 68.7997 66.8146L68.2663 69.8131C68.8759 69.7871 69.4601 69.7612 70.0189 69.7352C70.5777 69.6833 71.0857 69.6443 71.5429 69.6184C72.2795 69.5405 72.7875 69.5016 73.0669 69.5016Z" fill="white"/>
<path d="M108.509 60.1168C108.56 60.1168 108.585 60.1947 108.585 60.3505C108.585 60.5062 108.56 60.5841 108.509 60.5841C106.604 60.5841 105.448 61.8562 105.042 64.4003L101.461 84.8053C101.461 84.8572 101.422 84.8962 101.346 84.9221C101.27 84.974 101.181 85 101.08 85C100.876 85 100.762 84.9481 100.737 84.8442L89.5735 63.31L86.716 80.2103C86.6144 80.8853 86.5636 81.3396 86.5636 81.5732C86.5636 83.1828 87.3129 83.9875 88.8115 83.9875C88.8623 83.9875 88.8877 84.0654 88.8877 84.2212C88.8877 84.3769 88.8623 84.4548 88.8115 84.4548C88.2527 84.4548 87.8082 84.4418 87.478 84.4159L85.6112 84.3769L83.7824 84.4159C83.4522 84.4418 82.9696 84.4548 82.3346 84.4548C82.2838 84.4548 82.2584 84.3769 82.2584 84.2212C82.2584 84.0654 82.2838 83.9875 82.3346 83.9875C84.2396 83.9875 85.3953 82.7285 85.8016 80.2103L88.9258 62.2196C88.5194 61.6225 88.113 61.2072 87.7066 60.9735C87.3002 60.7139 86.8684 60.5841 86.4112 60.5841C86.335 60.5841 86.2969 60.5062 86.2969 60.3505C86.2969 60.1947 86.335 60.1168 86.4112 60.1168L87.8971 60.1558C88.2019 60.1817 88.621 60.1947 89.1544 60.1947C89.637 60.1947 90.0434 60.1817 90.3736 60.1558C90.7038 60.1298 90.9451 60.1168 91.0975 60.1168C91.2499 60.1168 91.3642 60.1687 91.4404 60.2726C91.5166 60.3505 91.6055 60.5452 91.7071 60.8567C91.8849 61.3759 92.0627 61.8043 92.2405 62.1417L101.422 79.9377L104.128 64.4003C104.229 63.7253 104.28 63.258 104.28 62.9984C104.28 61.3889 103.531 60.5841 102.032 60.5841C101.981 60.5841 101.956 60.5062 101.956 60.3505C101.956 60.1947 101.981 60.1168 102.032 60.1168L103.327 60.1558C104.089 60.2077 104.737 60.2336 105.271 60.2336C105.677 60.2336 106.261 60.2077 107.023 60.1558L108.509 60.1168Z" fill="white"/>
<path d="M112.827 85C111.253 85 110.033 84.4548 109.17 83.3645C108.332 82.2482 107.912 80.8074 107.912 79.0421C107.912 78.4709 107.976 77.77 108.103 76.9393C108.382 75.4076 108.916 74.0317 109.703 72.8115C110.516 71.5914 111.494 70.6438 112.637 69.9688C113.78 69.2679 114.986 68.9174 116.256 68.9174C117.882 68.9174 119.126 69.4626 119.99 70.553C120.879 71.6173 121.324 73.0322 121.324 74.7975C121.324 75.4725 121.247 76.1864 121.095 76.9393C120.765 78.5748 120.168 80.0026 119.304 81.2227C118.466 82.4429 117.475 83.3775 116.332 84.0265C115.189 84.6755 114.021 85 112.827 85ZM114.161 84.0265C115.151 84.0265 116.028 83.5462 116.79 82.5857C117.577 81.6251 118.123 80.3141 118.428 78.6526C118.58 77.8219 118.657 77.0042 118.657 76.1994C118.657 74.4341 118.339 72.9413 117.704 71.7212C117.094 70.4751 116.218 69.852 115.075 69.852C114.11 69.852 113.234 70.3323 112.446 71.2928C111.659 72.2534 111.113 73.5774 110.808 75.2648C110.63 76.2513 110.541 77.121 110.541 77.8738C110.541 79.6132 110.859 81.08 111.494 82.2741C112.154 83.4424 113.043 84.0265 114.161 84.0265Z" fill="white"/>
<path d="M128.767 64.634C128.208 64.634 127.764 64.4782 127.433 64.1667C127.129 63.8292 126.976 63.3749 126.976 62.8037C126.976 62.2586 127.129 61.8302 127.433 61.5187C127.764 61.2072 128.208 61.0514 128.767 61.0514C129.326 61.0514 129.758 61.2072 130.062 61.5187C130.392 61.8302 130.558 62.2586 130.558 62.8037C130.558 63.3749 130.405 63.8292 130.1 64.1667C129.796 64.4782 129.351 64.634 128.767 64.634ZM126.329 84.8053C125.313 84.8053 124.805 84.1693 124.805 82.8972C124.805 82.352 124.881 81.716 125.033 80.9891L126.595 72.8894C126.671 72.5 126.71 72.1625 126.71 71.8769C126.71 71.0981 126.468 70.7087 125.986 70.7087C125.706 70.7087 125.351 70.8645 124.919 71.176C124.487 71.4616 124.017 71.8769 123.509 72.4221C123.484 72.4481 123.446 72.4611 123.395 72.4611C123.319 72.4611 123.242 72.4221 123.166 72.3442C123.115 72.2404 123.128 72.1625 123.204 72.1106C124.881 70.0857 126.367 69.0732 127.662 69.0732C128.17 69.0732 128.538 69.229 128.767 69.5405C129.021 69.8261 129.148 70.2804 129.148 70.9034C129.148 71.5005 129.084 72.0976 128.957 72.6947L127.395 80.9891C127.319 81.3785 127.281 81.716 127.281 82.0016C127.281 82.7544 127.51 83.1308 127.967 83.1308C128.551 83.1308 129.351 82.5857 130.367 81.4953C130.393 81.4694 130.431 81.4564 130.481 81.4564C130.583 81.4564 130.659 81.5083 130.71 81.6121C130.761 81.69 130.748 81.7549 130.672 81.8069C129.834 82.8193 129.059 83.5722 128.348 84.0654C127.662 84.5587 126.989 84.8053 126.329 84.8053Z" fill="white"/>
<path d="M142.752 69.0732C143.286 69.0732 143.794 69.2679 144.276 69.6573C144.759 70.0467 145 70.501 145 71.0202C145 71.4097 144.86 71.7601 144.581 72.0717C144.327 72.3572 143.997 72.5 143.59 72.5C143.311 72.5 143.082 72.4481 142.905 72.3442C142.727 72.2144 142.536 72.0327 142.333 71.7991C142.206 71.6693 142.066 71.5524 141.914 71.4486C141.787 71.3188 141.635 71.2539 141.457 71.2539C140.949 71.2539 140.326 71.9938 139.59 73.4735C138.879 74.9273 138.193 76.6796 137.532 78.7305C136.897 80.7555 136.428 82.5467 136.123 84.1044C136.072 84.312 135.92 84.4678 135.666 84.5717C135.412 84.7015 135.069 84.7664 134.637 84.7664C133.977 84.7664 133.646 84.6755 133.646 84.4938C133.672 84.338 133.748 83.9356 133.875 83.2866C134.027 82.6376 134.142 82.0665 134.218 81.5732L135.589 73.9019C135.691 73.3048 135.742 72.7596 135.742 72.2664C135.742 71.2279 135.462 70.7087 134.904 70.7087C134.37 70.7087 133.621 71.202 132.656 72.1885C132.63 72.2144 132.592 72.2274 132.541 72.2274C132.465 72.2274 132.402 72.1885 132.351 72.1106C132.3 72.0067 132.3 71.9289 132.351 71.8769C133.164 70.9164 133.913 70.2155 134.599 69.7741C135.285 69.3069 135.958 69.0732 136.618 69.0732C137.151 69.0732 137.545 69.242 137.799 69.5794C138.053 69.9169 138.18 70.4881 138.18 71.2928C138.18 71.9159 138.104 72.7207 137.952 73.7072L137.151 78.2632C137.964 75.5893 138.853 73.3956 139.818 71.6822C140.809 69.9429 141.787 69.0732 142.752 69.0732Z" fill="white"/>
</svg>
